# xmcd
#
# Track frame offsets:
#	150
#	19813
#	34468
#	53920
#	70283
#	80853
#	97646
#	114566
#	131698
#	148641
#	162435
#	176395
#	191992
#	213881
#	236591
#	253533
#	267774
#	281792
#	298774
#	313046
#
# Disc length: 4467 seconds
#
# Revision: 0
# Processed by: cddbd v1.5.1PL0 Copyright (c) Steve Scherf et al.
# Submitted via: dBpowerAMP V4.0
#
DISCID=31117114
DTITLE=The Mavericks - Very Best Of The Mavericks
DYEAR=2004
DGENRE=Country
TTITLE0=Dance The Night Away
TTITLE1=There Goes My Heart
TTITLE2=All You Ever Do Is Bring Me Down
TTITLE3=Things I Cannot Change
TTITLE4=Think Of Me (When You're Lonely)
TTITLE5=I've Got This Feeling
TTITLE6=Here Comes The Rain
TTITLE7=What A Crying Shame
TTITLE8=This Broken Heart
TTITLE9=I Should Know
TTITLE10=Someone Should Tell Her
TTITLE11=Missing You
TTITLE12=From Hell To Paradise
TTITLE13=I Should Have Been True
TTITLE14=Tell Me Why
TTITLE15=I Got You
TTITLE16=I Don't Care If You Don't Love Me Anymore
TTITLE17=To Be With You
TTITLE18=Oh What A Thrill
TTITLE19=I Hope You Want Me Too
EXTD=Released only in Norway, Johnny H. Kihl
EXTT0=
EXTT1=
EXTT2=
EXTT3=
EXTT4=
EXTT5=
EXTT6=
EXTT7=
EXTT8=
EXTT9=
EXTT10=
EXTT11=
EXTT12=
EXTT13=
EXTT14=
EXTT15=
EXTT16=
EXTT17=
EXTT18=
EXTT19=
PLAYORDER=
